<svg xmlns="http://www.w3.org/2000/svg" viewBox="0 0 564.2 1102.56"><defs><style>.cls-1{fill:#197378;}.cls-2{fill:#283c3c;}</style></defs><g id="Layer_2" data-name="Layer 2"><g id="Spine"><path class="cls-1" d="M561.78,1039c27.31-142.84-184.65-74.29-214.63-217.92-23.58-113,153-298,130.15-411.08C461.12,330,284.16,254.09,264.57,174.81c-10.79-43.7,97.27-118.61,76.85-158.52C331.64-2.83,267.64-3,248.9,5.08c-39.14,17-120.07,146.66-118.17,191.56C134.17,278.1,312.6,347.7,312.55,429.16,312.48,544.26,48.73,668.49,49.39,783.6,50.23,930,197,1021,329.8,1067.92,402.73,1093.67,546.78,1117.45,561.78,1039Z"/><path class="cls-2" d="M512.39,1049c27.31-142.84-184.65-74.29-214.63-217.92-23.58-113,153-298,130.15-411.08C411.73,340,234.77,264.09,215.18,184.81,204.39,141.11,312.46,66.2,292,26.29,282.25,7.17,218.26,7,199.51,15.08c-39.14,17-120.07,146.66-118.17,191.56C84.78,288.1,263.21,357.7,263.16,439.16,263.09,554.26-.66,678.49,0,793.6.84,940,147.63,1031,280.41,1077.92,353.34,1103.67,497.39,1127.45,512.39,1049Z"/></g></g></svg>